<svg width="146" height="36" viewBox="0 0 146 36" fill="none" xmlns="http://www.w3.org/2000/svg">
<path d="M56.3213 2.44531C60.0062 2.44531 62.695 3.16797 64.3877 4.61328C66.0934 6.04557 66.9463 8.10286 66.9463 10.7852C66.9463 11.9961 66.7445 13.1484 66.3408 14.2422C65.9502 15.3229 65.3122 16.2799 64.4268 17.1133C63.5413 17.9336 62.376 18.5846 60.9307 19.0664C59.4984 19.5352 57.7406 19.7695 55.6572 19.7695H52.1807V31H48.8604V2.44531H56.3213ZM56.0088 5.27734H52.1807V16.918H55.2861C57.109 16.918 58.626 16.7227 59.8369 16.332C61.0609 15.9414 61.9788 15.3099 62.5908 14.4375C63.2028 13.5521 63.5088 12.3802 63.5088 10.9219C63.5088 9.02083 62.9033 7.60807 61.6924 6.68359C60.4814 5.74609 58.5869 5.27734 56.0088 5.27734Z" fill="#141E34"/>
<path d="M90.833 31L87.3174 21.9375H75.8721L72.376 31H69.0166L80.1885 2.32812H83.1768L94.2705 31H90.833ZM86.3213 18.9883L82.9814 9.98438C82.9033 9.75 82.7731 9.36589 82.5908 8.83203C82.4216 8.29818 82.2458 7.74479 82.0635 7.17188C81.8812 6.59896 81.7314 6.13672 81.6143 5.78516C81.4841 6.31901 81.3408 6.85286 81.1846 7.38672C81.0413 7.90755 80.8981 8.39583 80.7549 8.85156C80.6117 9.29427 80.488 9.67188 80.3838 9.98438L76.9854 18.9883H86.3213Z" fill="#141E34"/>
<path d="M120.56 31H116.731L101.165 7.01562H101.009C101.048 7.65365 101.093 8.38281 101.146 9.20312C101.198 10.0104 101.237 10.8763 101.263 11.8008C101.302 12.7122 101.321 13.6432 101.321 14.5938V31H98.2354V2.44531H102.044L117.552 26.3516H117.688C117.662 25.8958 117.63 25.2513 117.591 24.418C117.552 23.5716 117.513 22.6667 117.474 21.7031C117.448 20.7266 117.435 19.8216 117.435 18.9883V2.44531H120.56V31Z" fill="#141E34"/>
<path d="M145.794 31H125.97V28.5L141.341 5.41406H126.497V2.44531H145.384V4.94531L129.993 28.0312H145.794V31Z" fill="#141E34"/>
<path d="M5.87008 29.8367L3.88451 22.0678M3.88451 22.0678L1.89893 14.2988L14.5 19L9.70049 23.7609L3.88451 22.0678Z" stroke="#FB9634" stroke-width="2.247" stroke-linecap="round"/>
<path d="M15.946 14.2286L9.31093 11.7996M9.31093 11.7996L2.6759 9.37064L12.9505 2.59779L14.0232 8.05277L9.31093 11.7996Z" stroke="#FB9634" stroke-width="2.247" stroke-linecap="round"/>
<path d="M22.0601 14.2772L28.6872 11.7861M28.6872 11.7861L35.3143 9.29504L24.9808 2.60849L23.9435 8.07822L28.6872 11.7861Z" stroke="#FB9634" stroke-width="2.247" stroke-linecap="round"/>
<path d="M31.0838 29.9143L33.0694 22.1453M33.0694 22.1453L35.5 14.5L23.5 19L27.2534 23.8385L33.0694 22.1453Z" stroke="#FB9634" stroke-width="2.247" stroke-linecap="round"/>
<path d="M26.81 30.4228L18.7914 30.4097M18.7914 30.4097L10.7727 30.3966L19 21.5L21.8805 25.1991L18.7914 30.4097Z" stroke="#FB9634" stroke-width="2.247" stroke-linecap="round"/>
<path d="M17.2869 0H20.7271L19.5 14H18.3004L17.2869 0Z" fill="#FB9634"/>
</svg>
