<svg width="93" height="21" viewBox="0 0 93 21" fill="none" xmlns="http://www.w3.org/2000/svg">
<path d="M37.0703 2.23909C39.3623 2.23909 41.0348 2.68858 42.0876 3.58756C43.1486 4.47844 43.6791 5.75806 43.6791 7.42644C43.6791 8.17964 43.5535 8.89639 43.3025 9.5767C43.0595 10.2489 42.6626 10.8442 42.1119 11.3625C41.5612 11.8727 40.8363 12.2777 39.9374 12.5773C39.0465 12.8689 37.9531 13.0147 36.6573 13.0147H34.4949V20H32.4297V2.23909H37.0703ZM36.876 4.0006H34.4949V11.241H36.4265C37.5603 11.241 38.5039 11.1195 39.2571 10.8766C40.0183 10.6336 40.5893 10.2408 40.97 9.69818C41.3506 9.14746 41.5409 8.41855 41.5409 7.51148C41.5409 6.32904 41.1643 5.4503 40.4111 4.87528C39.6579 4.29216 38.4796 4.0006 36.876 4.0006Z" fill="#141E34"/>
<path d="M58.5365 20L56.3498 14.3632H49.2309L47.0563 20H44.9668L51.9156 2.1662H53.7743L60.6746 20H58.5365ZM55.7302 12.5287L53.6529 6.92836C53.6043 6.78257 53.5233 6.54366 53.4099 6.2116C53.3046 5.87955 53.1953 5.53534 53.0819 5.17899C52.9685 4.82264 52.8754 4.53513 52.8025 4.31646C52.7215 4.64851 52.6324 4.98057 52.5352 5.31262C52.4461 5.63658 52.357 5.94029 52.2679 6.22375C52.1789 6.49911 52.1019 6.73398 52.0371 6.92836L49.9233 12.5287H55.7302Z" fill="#141E34"/>
<path d="M77.0263 20H74.6452L64.963 5.0818H64.8658C64.8901 5.47865 64.9184 5.93219 64.9508 6.44242C64.9832 6.94455 65.0075 7.48313 65.0237 8.05815C65.048 8.62508 65.0602 9.20415 65.0602 9.79537V20H63.1407V2.23909H65.5097L75.1555 17.1087H75.2405C75.2243 16.8252 75.204 16.4243 75.1797 15.906C75.1555 15.3796 75.1312 14.8167 75.1069 14.2174C75.0907 13.61 75.0826 13.0471 75.0826 12.5287V2.23909H77.0263V20Z" fill="#141E34"/>
<path d="M92.722 20H80.3914V18.445L89.9522 4.08564H80.7194V2.23909H92.4669V3.79408L82.894 18.1534H92.722V20Z" fill="#141E34"/>
<path d="M3.88981 17.7047L2.71159 13.0947M2.71159 13.0947L1.53337 8.48474L9.01069 11.2744L6.16272 14.0994L2.71159 13.0947Z" stroke="#141E34" stroke-width="1.49334" stroke-linecap="round"/>
<path d="M9.86873 8.44309L5.93159 7.00176M5.93159 7.00176L1.99445 5.56042L8.09123 1.5415L8.7278 4.77842L5.93159 7.00176Z" stroke="#141E34" stroke-width="1.49334" stroke-linecap="round"/>
<path d="M13.4968 8.47189L17.4292 6.99373M17.4292 6.99373L21.3617 5.51556L15.2299 1.54785L14.6144 4.79352L17.4292 6.99373Z" stroke="#141E34" stroke-width="1.49334" stroke-linecap="round"/>
<path d="M18.8513 17.7508L20.0295 13.1408M20.0295 13.1408L21.4718 8.60413L14.3512 11.2744L16.5784 14.1454L20.0295 13.1408Z" stroke="#141E34" stroke-width="1.49334" stroke-linecap="round"/>
<path d="M16.3153 18.0525L11.5572 18.0447M11.5572 18.0447L6.79898 18.0369L11.681 12.7578L13.3902 14.9528L11.5572 18.0447Z" stroke="#141E34" stroke-width="1.49334" stroke-linecap="round"/>
<path d="M10.6644 0H12.7058L11.9776 8.30742H11.2658L10.6644 0Z" fill="#141E34"/>
</svg>
