<svg width="166" height="52" viewBox="0 0 166 52" fill="none" xmlns="http://www.w3.org/2000/svg">
<path d="M56.3213 12.4453C60.0062 12.4453 62.695 13.168 64.3877 14.6133C66.0934 16.0456 66.9463 18.1029 66.9463 20.7852C66.9463 21.9961 66.7445 23.1484 66.3408 24.2422C65.9502 25.3229 65.3122 26.2799 64.4268 27.1133C63.5413 27.9336 62.376 28.5846 60.9307 29.0664C59.4984 29.5352 57.7406 29.7695 55.6572 29.7695H52.1807V41H48.8604V12.4453H56.3213ZM56.0088 15.2773H52.1807V26.918H55.2861C57.109 26.918 58.626 26.7227 59.8369 26.332C61.0609 25.9414 61.9788 25.3099 62.5908 24.4375C63.2028 23.5521 63.5088 22.3802 63.5088 20.9219C63.5088 19.0208 62.9033 17.6081 61.6924 16.6836C60.4814 15.7461 58.5869 15.2773 56.0088 15.2773ZM90.833 41L87.3174 31.9375H75.8721L72.376 41H69.0166L80.1885 12.3281H83.1768L94.2705 41H90.833ZM86.3213 28.9883L82.9814 19.9844C82.9033 19.75 82.7731 19.3659 82.5908 18.832C82.4215 18.2982 82.2458 17.7448 82.0635 17.1719C81.8812 16.599 81.7314 16.1367 81.6143 15.7852C81.484 16.319 81.3408 16.8529 81.1846 17.3867C81.0413 17.9076 80.8981 18.3958 80.7549 18.8516C80.6117 19.2943 80.488 19.6719 80.3838 19.9844L76.9854 28.9883H86.3213ZM120.56 41H116.731L101.165 17.0156H101.009C101.048 17.6536 101.093 18.3828 101.146 19.2031C101.198 20.0104 101.237 20.8763 101.263 21.8008C101.302 22.7122 101.321 23.6432 101.321 24.5938V41H98.2354V12.4453H102.044L117.552 36.3516H117.688C117.662 35.8958 117.63 35.2513 117.591 34.418C117.552 33.5716 117.513 32.6667 117.474 31.7031C117.448 30.7266 117.435 29.8216 117.435 28.9883V12.4453H120.56V41ZM145.794 41H125.97V38.5L141.341 15.4141H126.497V12.4453H145.384V14.9453L129.993 38.0312H145.794V41Z" fill="#141E34"/>
<path d="M5.87008 39.8368L3.88451 32.0678M3.88451 32.0678L1.89893 24.2989L13.4554 28.9667L9.70049 33.7609L3.88451 32.0678Z" stroke="#FB9634" stroke-width="2.247" stroke-linecap="round"/>
<path d="M17.4825 25.5319L10.0792 22.4513M10.0792 22.4513L2.6759 19.3707L13.3507 12.9373L14.9271 18.8194L10.0792 22.4513Z" stroke="#FB9634" stroke-width="2.247" stroke-linecap="round"/>
<path d="M20.5567 25.5727L27.9355 22.4339M27.9355 22.4339L35.3143 19.2951L24.5891 12.946L23.0592 18.8403L27.9355 22.4339Z" stroke="#FB9634" stroke-width="2.247" stroke-linecap="round"/>
<path d="M31.0838 39.9143L33.0694 32.1454M33.0694 32.1454L35.0549 24.3764L23.4985 29.0442L27.2534 33.8385L33.0694 32.1454Z" stroke="#FB9634" stroke-width="2.247" stroke-linecap="round"/>
<path d="M26.7128 40.6199L18.6978 40.3782M18.6978 40.3782L10.6827 40.1364L18.3661 30.3229L21.9341 35.2578L18.6978 40.3782Z" stroke="#FB9634" stroke-width="2.247" stroke-linecap="round"/>
<path d="M17.0325 8.85101H20.4727L19.273 22.6118H18.0734L17.0325 8.85101Z" fill="#FB9634"/>
</svg>
